<svg width="730" height="318" viewBox="0 0 730 318" fill="none" xmlns="http://www.w3.org/2000/svg">
<g clip-path="url(#clip0_154_46)">
<path d="M246 25L298 66V126.5L246 84.5V25Z" fill="#262626"/>
<path d="M214 25L194 10H226L246 25H214Z" fill="#053324"/>
<path d="M372 25L352 10H384L404 25H372Z" fill="#053324"/>
<path d="M246 25H214V202H246V25Z" fill="#0C6145"/>
<path d="M404 25H372V202H404V25Z" fill="#0C6145"/>
<path d="M194 10L214 25V202L194 186.842V10Z" fill="#114232"/>
<path d="M352 10L372 25V202L352 186.842V10Z" fill="#114232"/>
<path d="M298 66L352 10V71.0435L298 126.5V66Z" fill="#444444"/>
<path d="M404 65.5789L457 10H517L404 126.211V65.5789Z" fill="#444444"/>
<path d="M404 86L535 202H475.114L404 146.522V86Z" fill="#262626"/>
</g>
<path d="M11.665 267V214.5H23.89L45.565 250.2H39.115L60.34 214.5H72.565L72.715 267H58.99L58.915 235.275H61.24L45.415 261.825H38.815L22.54 235.275H25.315V267H11.665ZM103.982 267.675C99.1818 267.675 94.9818 266.775 91.3818 264.975C87.8318 263.125 85.0568 260.625 83.0568 257.475C81.1068 254.275 80.1318 250.65 80.1318 246.6C80.1318 242.55 81.0818 238.95 82.9818 235.8C84.9318 232.6 87.6068 230.125 91.0068 228.375C94.4068 226.575 98.2318 225.675 102.482 225.675C106.482 225.675 110.132 226.5 113.432 228.15C116.732 229.75 119.357 232.125 121.307 235.275C123.257 238.425 124.232 242.25 124.232 246.75C124.232 247.25 124.207 247.825 124.157 248.475C124.107 249.125 124.057 249.725 124.007 250.275H91.8318V242.775H116.432L111.032 244.875C111.082 243.025 110.732 241.425 109.982 240.075C109.282 238.725 108.282 237.675 106.982 236.925C105.732 236.175 104.257 235.8 102.557 235.8C100.857 235.8 99.3568 236.175 98.0568 236.925C96.8068 237.675 95.8318 238.75 95.1318 240.15C94.4318 241.5 94.0818 243.1 94.0818 244.95V247.125C94.0818 249.125 94.4818 250.85 95.2818 252.3C96.1318 253.75 97.3318 254.875 98.8818 255.675C100.432 256.425 102.282 256.8 104.432 256.8C106.432 256.8 108.132 256.525 109.532 255.975C110.982 255.375 112.407 254.475 113.807 253.275L121.307 261.075C119.357 263.225 116.957 264.875 114.107 266.025C111.257 267.125 107.882 267.675 103.982 267.675ZM139.52 267V234.525L142.595 237.675H126.395V226.35H166.745V237.675H150.545L153.695 234.525V267H139.52ZM196.341 267V259.425L195.366 257.55V243.6C195.366 241.35 194.666 239.625 193.266 238.425C191.916 237.175 189.741 236.55 186.741 236.55C184.791 236.55 182.816 236.875 180.816 237.525C178.816 238.125 177.116 238.975 175.716 240.075L170.916 230.4C173.216 228.9 175.966 227.75 179.166 226.95C182.416 226.1 185.641 225.675 188.841 225.675C195.441 225.675 200.541 227.2 204.141 230.25C207.791 233.25 209.616 237.975 209.616 244.425V267H196.341ZM184.341 267.675C181.091 267.675 178.341 267.125 176.091 266.025C173.841 264.925 172.116 263.425 170.916 261.525C169.766 259.625 169.191 257.5 169.191 255.15C169.191 252.65 169.816 250.5 171.066 248.7C172.366 246.85 174.341 245.45 176.991 244.5C179.641 243.5 183.066 243 187.266 243H196.866V250.425H189.216C186.916 250.425 185.291 250.8 184.341 251.55C183.441 252.3 182.991 253.3 182.991 254.55C182.991 255.8 183.466 256.8 184.416 257.55C185.366 258.3 186.666 258.675 188.316 258.675C189.866 258.675 191.266 258.3 192.516 257.55C193.816 256.75 194.766 255.55 195.366 253.95L197.316 259.2C196.566 262 195.091 264.125 192.891 265.575C190.741 266.975 187.891 267.675 184.341 267.675ZM214.064 267L214.664 255.375C215.014 255.425 215.339 255.475 215.639 255.525C215.939 255.525 216.214 255.525 216.464 255.525C217.714 255.525 218.689 255.225 219.389 254.625C220.139 253.975 220.689 253.1 221.039 252C221.439 250.9 221.714 249.625 221.864 248.175C222.064 246.675 222.189 245.05 222.239 243.3L222.839 226.35H259.589V267H245.339V234.45L248.489 237.675H232.214L235.214 234.3L234.764 243.9C234.614 247.55 234.289 250.875 233.789 253.875C233.339 256.825 232.614 259.35 231.614 261.45C230.614 263.55 229.239 265.175 227.489 266.325C225.789 267.425 223.614 267.975 220.964 267.975C220.014 267.975 218.939 267.875 217.739 267.675C216.589 267.525 215.364 267.3 214.064 267ZM265.04 267L265.64 255.375C265.99 255.425 266.315 255.475 266.615 255.525C266.915 255.525 267.19 255.525 267.44 255.525C268.69 255.525 269.665 255.225 270.365 254.625C271.115 253.975 271.665 253.1 272.015 252C272.415 250.9 272.69 249.625 272.84 248.175C273.04 246.675 273.165 245.05 273.215 243.3L273.815 226.35H310.565V267H296.315V234.45L299.465 237.675H283.19L286.19 234.3L285.74 243.9C285.59 247.55 285.265 250.875 284.765 253.875C284.315 256.825 283.59 259.35 282.59 261.45C281.59 263.55 280.215 265.175 278.465 266.325C276.765 267.425 274.59 267.975 271.94 267.975C270.99 267.975 269.915 267.875 268.715 267.675C267.565 267.525 266.34 267.3 265.04 267ZM354.117 267L339.342 242.025L351.267 234.975L370.842 267H354.117ZM320.667 267V214.5H335.442V267H320.667ZM331.167 246.9V234.9H350.217V246.9H331.167ZM352.692 242.325L338.967 240.825L355.092 214.5H370.692L352.692 242.325ZM394.146 267.675C389.696 267.675 385.746 266.775 382.296 264.975C378.846 263.175 376.121 260.7 374.121 257.55C372.171 254.35 371.196 250.7 371.196 246.6C371.196 242.5 372.171 238.875 374.121 235.725C376.121 232.575 378.846 230.125 382.296 228.375C385.746 226.575 389.696 225.675 394.146 225.675C398.596 225.675 402.546 226.575 405.996 228.375C409.496 230.125 412.221 232.575 414.171 235.725C416.121 238.875 417.096 242.5 417.096 246.6C417.096 250.7 416.121 254.35 414.171 257.55C412.221 260.7 409.496 263.175 405.996 264.975C402.546 266.775 398.596 267.675 394.146 267.675ZM394.146 256.35C395.796 256.35 397.246 255.975 398.496 255.225C399.796 254.475 400.821 253.375 401.571 251.925C402.321 250.425 402.696 248.65 402.696 246.6C402.696 244.55 402.321 242.825 401.571 241.425C400.821 239.975 399.796 238.875 398.496 238.125C397.246 237.375 395.796 237 394.146 237C392.546 237 391.096 237.375 389.796 238.125C388.546 238.875 387.521 239.975 386.721 241.425C385.971 242.825 385.596 244.55 385.596 246.6C385.596 248.65 385.971 250.425 386.721 251.925C387.521 253.375 388.546 254.475 389.796 255.225C391.096 255.975 392.546 256.35 394.146 256.35ZM423.779 267V226.35H438.779L452.954 252.9H447.029L462.554 226.35H475.979L476.054 267H463.229V240.45L465.404 241.95L452.804 263.4H446.729L434.129 240.9L436.604 240.225V267H423.779ZM485.669 267V226.35H527.669V267H513.494V234.6L516.644 237.675H496.769L499.844 234.6V267H485.669ZM533.253 267L533.853 255.375C534.203 255.425 534.528 255.475 534.828 255.525C535.128 255.525 535.403 255.525 535.653 255.525C536.903 255.525 537.878 255.225 538.578 254.625C539.328 253.975 539.878 253.1 540.228 252C540.628 250.9 540.903 249.625 541.053 248.175C541.253 246.675 541.378 245.05 541.428 243.3L542.028 226.35H578.778V267H564.528V234.45L567.678 237.675H551.403L554.403 234.3L553.953 243.9C553.803 247.55 553.478 250.875 552.978 253.875C552.528 256.825 551.803 259.35 550.803 261.45C549.803 263.55 548.428 265.175 546.678 266.325C544.978 267.425 542.803 267.975 540.153 267.975C539.203 267.975 538.128 267.875 536.928 267.675C535.778 267.525 534.553 267.3 533.253 267ZM609.28 267.675C604.48 267.675 600.28 266.775 596.68 264.975C593.13 263.125 590.355 260.625 588.355 257.475C586.405 254.275 585.43 250.65 585.43 246.6C585.43 242.55 586.38 238.95 588.28 235.8C590.23 232.6 592.905 230.125 596.305 228.375C599.705 226.575 603.53 225.675 607.78 225.675C611.78 225.675 615.43 226.5 618.73 228.15C622.03 229.75 624.655 232.125 626.605 235.275C628.555 238.425 629.53 242.25 629.53 246.75C629.53 247.25 629.505 247.825 629.455 248.475C629.405 249.125 629.355 249.725 629.305 250.275H597.13V242.775H621.73L616.33 244.875C616.38 243.025 616.03 241.425 615.28 240.075C614.58 238.725 613.58 237.675 612.28 236.925C611.03 236.175 609.555 235.8 607.855 235.8C606.155 235.8 604.655 236.175 603.355 236.925C602.105 237.675 601.13 238.75 600.43 240.15C599.73 241.5 599.38 243.1 599.38 244.95V247.125C599.38 249.125 599.78 250.85 600.58 252.3C601.43 253.75 602.63 254.875 604.18 255.675C605.73 256.425 607.58 256.8 609.73 256.8C611.73 256.8 613.43 256.525 614.83 255.975C616.28 255.375 617.705 254.475 619.105 253.275L626.605 261.075C624.655 263.225 622.255 264.875 619.405 266.025C616.555 267.125 613.18 267.675 609.28 267.675ZM665.561 267L653.186 248.025L664.661 241.275L682.361 267H665.561ZM637.061 267V226.35H651.311V267H637.061ZM647.111 252.525V241.35H661.811V252.525H647.111ZM666.086 248.25L652.736 246.9L666.386 226.35H681.461L666.086 248.25ZM696.014 267V234.525L699.089 237.675H682.889V226.35H723.239V237.675H707.039L710.189 234.525V267H696.014Z" fill="#262626"/>
<path d="M187.143 308V285.6H202.951L202.919 289.824H191.079L192.263 288.64L192.295 308H187.143ZM206.112 308V285.6H215.808C217.813 285.6 219.541 285.931 220.992 286.592C222.443 287.232 223.563 288.16 224.352 289.376C225.141 290.592 225.536 292.043 225.536 293.728C225.536 295.392 225.141 296.832 224.352 298.048C223.563 299.264 222.443 300.203 220.992 300.864C219.541 301.504 217.813 301.824 215.808 301.824H208.992L211.296 299.488V308H206.112ZM211.296 300.064L208.992 297.6H215.52C217.12 297.6 218.315 297.259 219.104 296.576C219.893 295.893 220.288 294.944 220.288 293.728C220.288 292.491 219.893 291.531 219.104 290.848C218.315 290.165 217.12 289.824 215.52 289.824H208.992L211.296 287.36V300.064ZM229.224 303.776C230.461 304.139 231.496 304.245 232.328 304.096C233.181 303.925 233.939 303.328 234.6 302.304L235.688 300.672L236.168 300.128L243.592 285.6H248.68L239.144 303.328C238.291 304.928 237.277 306.155 236.104 307.008C234.952 307.861 233.683 308.341 232.296 308.448C230.909 308.576 229.469 308.331 227.976 307.712L229.224 303.776ZM236.072 304.448L225.96 285.6H231.496L238.92 300.64L236.072 304.448ZM251.143 308V285.6H271.559V308H266.407V288.64L267.591 289.824H255.111L256.295 288.64V308H251.143ZM277.112 308V285.6H297.528V308H292.376V288.64L293.56 289.824H281.08L282.264 288.64V308H277.112ZM300.553 308L310.537 285.6H315.657L325.673 308H320.233L312.041 288.224H314.089L305.865 308H300.553ZM305.545 303.2L306.921 299.264H318.441L319.849 303.2H305.545ZM352.202 308L345.226 297.216L349.418 294.688L358.09 308H352.202ZM337.642 308V285.6H342.794V308H337.642ZM341.29 298.976V294.656H349.098V298.976H341.29ZM349.898 297.376L345.13 296.8L352.394 285.6H357.866L349.898 297.376ZM371.145 308.384C369.374 308.384 367.731 308.096 366.217 307.52C364.723 306.944 363.422 306.133 362.313 305.088C361.225 304.043 360.371 302.816 359.753 301.408C359.155 300 358.857 298.464 358.857 296.8C358.857 295.136 359.155 293.6 359.753 292.192C360.371 290.784 361.235 289.557 362.345 288.512C363.454 287.467 364.755 286.656 366.249 286.08C367.742 285.504 369.363 285.216 371.113 285.216C372.883 285.216 374.505 285.504 375.977 286.08C377.47 286.656 378.761 287.467 379.849 288.512C380.958 289.557 381.822 290.784 382.441 292.192C383.059 293.579 383.369 295.115 383.369 296.8C383.369 298.464 383.059 300.011 382.441 301.44C381.822 302.848 380.958 304.075 379.849 305.12C378.761 306.144 377.47 306.944 375.977 307.52C374.505 308.096 372.894 308.384 371.145 308.384ZM371.113 303.968C372.115 303.968 373.033 303.797 373.865 303.456C374.718 303.115 375.465 302.624 376.105 301.984C376.745 301.344 377.235 300.587 377.577 299.712C377.939 298.837 378.121 297.867 378.121 296.8C378.121 295.733 377.939 294.763 377.577 293.888C377.235 293.013 376.745 292.256 376.105 291.616C375.486 290.976 374.75 290.485 373.897 290.144C373.043 289.803 372.115 289.632 371.113 289.632C370.11 289.632 369.182 289.803 368.329 290.144C367.497 290.485 366.761 290.976 366.121 291.616C365.481 292.256 364.979 293.013 364.617 293.888C364.275 294.763 364.105 295.733 364.105 296.8C364.105 297.845 364.275 298.816 364.617 299.712C364.979 300.587 365.47 301.344 366.089 301.984C366.729 302.624 367.475 303.115 368.329 303.456C369.182 303.797 370.11 303.968 371.113 303.968ZM387.362 308V285.6H391.65L401.186 301.408H398.914L408.29 285.6H412.578L412.61 308H407.746L407.714 293.056H408.642L401.122 305.632H398.818L391.138 293.056H392.226V308H387.362ZM418.175 308V285.6H438.591V308H433.439V288.64L434.623 289.824H422.143L423.327 288.64V308H418.175ZM441.615 308L451.599 285.6H456.719L466.735 308H461.295L453.103 288.224H455.151L446.927 308H441.615ZM446.607 303.2L447.983 299.264H459.503L460.911 303.2H446.607ZM485.066 285.6H490.25V308H485.066V285.6ZM474.89 308H469.706V285.6H474.89V308ZM485.45 298.816H474.506V294.432H485.45V298.816ZM495.862 308V285.6H501.014V300.192L511.702 285.6H516.566V308H511.446V293.44L500.758 308H495.862ZM522.143 308V285.6H527.295V300.192L537.983 285.6H542.847V308H537.727V293.44L527.039 308H522.143ZM532.479 284.16C530.346 284.16 528.778 283.733 527.775 282.88C526.794 282.027 526.293 280.821 526.271 279.264H529.823C529.845 280.032 530.069 280.619 530.495 281.024C530.943 281.408 531.605 281.6 532.479 281.6C533.333 281.6 533.983 281.408 534.431 281.024C534.879 280.619 535.114 280.032 535.135 279.264H538.687C538.666 280.821 538.154 282.027 537.151 282.88C536.149 283.733 534.591 284.16 532.479 284.16Z" fill="#262626"/>
<defs>
<clipPath id="clip0_154_46">
<rect width="341" height="192" fill="white" transform="translate(194 10)"/>
</clipPath>
</defs>
</svg>
